# xmcd
#
# Track frame offsets:
# 150
# 18794
# 39135
# 57351
# 76577
# 97256
# 135122
# 146391
#
# Disc length: 2246 seconds
#
#
# Revision: 0
# Processed by: cddbd v1.5.2PL0 Copyright (c) Steve Scherf et al.
# Submitted via: FreeRIP 2.943 
#
DISCID=5208c408
DTITLE=Made For TV Movie - the Story of My Heroics
DYEAR=1999
DGENRE=Indie
TTITLE0=Good
TTITLE1=Couch
TTITLE2=Paper Anniversary
TTITLE3=Argument
TTITLE4=Portable
TTITLE5=How Did We Get Home Last Night
TTITLE6=Lucky Pierre
TTITLE7=Kill-Birds
EXTD=zz
EXTT0=
EXTT1=
EXTT2=
EXTT3=
EXTT4=
EXTT5=
EXTT6=
EXTT7=
PLAYORDER=
